<?xml version="1.0" encoding="utf-8"?>
<!-- Generator: Adobe Illustrator 25.0.1, SVG Export Plug-In . SVG Version: 6.00 Build 0)  -->
<svg version="1.1" id="Calque_1" xmlns="http://www.w3.org/2000/svg" xmlns:xlink="http://www.w3.org/1999/xlink" x="0px" y="0px"
	 viewBox="0 0 500 500" style="enable-background:new 0 0 500 500;" xml:space="preserve">
<style type="text/css">
	.st0{fill:#74C7D2;}
	.st1{fill:#FEE05A;}
	.st2{fill:#C9D5FB;}
	.st3{fill:none;}
	.st4{font-family:'Montserrat-SemiBold';}
	.st5{font-size:249.6851px;}
</style>
<path class="st0" d="M486.48,247.46v1.71c0,60.98-24.34,119.28-68.74,164.25c-26.9,27.28-59.71,47.63-95.1,59.57
	c3.61-6.22,7.25-12.43,10.88-18.62c5.92-10.1,11.83-20.17,17.8-30.21c5.54-9.34,13.38-17.67,21.41-25.1
	c46.57-43.1,75.01-94.55,71.13-159.55c-4.31-71.57-40.19-124.22-101.42-160.29c-4.89-2.88-9.99-5.37-17.15-9.2
	c4.02-0.38,5.78-0.68,7.54-0.68c15.52,0.11,31.02,0.22,46.54,0.33c7.35,0.05,14.71,0.11,22.09,0.16c4.37,3.66,8.6,7.52,12.73,11.53
	C460.35,126.2,485.99,185.17,486.48,247.46z"/>
<path class="st1" d="M334.45,424.95c-2.12,4.26-3.28,6.89-4.72,9.39c-5.24,9.06-10.48,18.16-15.69,27.22h-0.03
	c-3.23,5.62-6.46,11.21-9.69,16.83c-17.78,4.45-36.04,6.84-54.36,6.95h-1.44c-61.82,0-120.17-24.07-164.44-67.93
	c-45.02-44.62-69.97-104.16-70.16-167.61c-0.05-13.76,1.11-27.25,3.37-40.33c3.74,6.22,7.49,12.43,11.21,18.64
	c7.22,12.05,14.44,24.1,21.63,36.18c5.73,9.61,9.34,20.92,11.86,31.94c20.84,91,110.81,155.89,203.63,146.8
	c21.79-2.14,42.72-6.92,62.64-16.01C329.67,426.36,331.19,426.01,334.45,424.95z"/>
<path class="st2" d="M384.57,56.69c-8.33,0-16.66,0-25.02-0.03c-36.2,0-72.44-0.03-108.67-0.11
	C146.72,56.37,62.24,136.24,56.45,240.67c-0.05,1-0.22,2.01-0.57,4.89c-2.28-2.85-3.96-4.53-5.13-6.51
	c-6.4-10.64-12.81-21.28-19.21-31.92c-3.37-5.62-6.73-11.21-10.12-16.83C47.66,90.05,139.91,16.5,253.03,14.16
	C298.38,13.21,344.76,28.41,384.57,56.69z"/>
<g>
	<rect x="-1.85" y="152.02" class="st3" width="488.51" height="293.11"/>
	<text transform="matrix(1 0 0 1 138.8232 337.2891)" class="st0 st4 st5">IS</text>
</g>
</svg>
