<svg width="41" height="41" xmlns="http://www.w3.org/2000/svg" xmlns:xlink="http://www.w3.org/1999/xlink" overflow="hidden"><defs><clipPath id="clip0"><rect x="33" y="15" width="41" height="41"/></clipPath></defs><g clip-path="url(#clip0)" transform="translate(-33 -15)"><path d="M41.4135 37.6354C41.2 37.7635 40.9437 37.9344 40.7302 38.0625 39.7052 38.8313 39.0219 39.9844 38.851 41.2656L38.0823 50.6615 38.7656 50.875C38.9792 50.9604 44.6167 52.5833 53.5427 52.5833 62.4688 52.5833 68.0635 50.9604 68.3198 50.875L69.0031 50.6615 68.2771 41.351 68.2771 41.2656C68.0635 40.0271 67.3802 38.874 66.3979 38.1052 65.2021 37.2083 63.9208 36.4396 62.5115 35.8844 63.1094 34.6031 62.5969 33.0656 61.3583 32.425 64.476 28.1542 63.5365 22.1323 59.2656 19.0146 54.9948 15.8969 48.9729 16.8365 45.8552 21.1073 43.3781 24.4813 43.3781 29.051 45.8552 32.425 44.574 33.1083 44.0615 34.6458 44.7021 35.9698 43.6344 36.4396 42.3958 37.0375 41.4135 37.6354ZM46.4958 35.5854C46.026 35.3292 45.8979 34.7313 46.1542 34.2615 46.325 33.9625 46.624 33.7917 46.9656 33.7917 50.6385 37.2083 56.3187 37.2083 59.9917 33.7917 60.0771 33.7917 60.1625 33.7917 60.2052 33.8344 60.7177 33.9625 61.0167 34.475 60.8885 34.9875 60.8458 35.2438 60.675 35.4573 60.4615 35.5854 58.7958 36.6104 56.2333 37.2083 53.5 37.2083 50.7667 37.2083 48.2469 36.6104 46.4958 35.5854L46.4958 35.5854ZM55.2938 24.3958 56.6177 24.8229C57.1729 25.976 58.625 26.9583 58.6677 28.624L58.6677 29.051C58.6677 29.649 58.5823 30.2042 58.3688 30.7594L56.4896 30.7594C56.3187 30.5031 56.0625 30.3323 55.7635 30.3323L54.9094 30.3323C54.4396 30.3323 54.0552 30.7167 54.0552 31.1865 54.0552 31.6562 54.4396 32.0406 54.9094 32.0406L55.7635 32.0406C56.0625 32.0406 56.3615 31.8698 56.4896 31.6135L57.9844 31.6135C56.575 34.0479 53.4573 34.9021 50.9802 33.4927 49.5708 32.6813 48.6312 31.2292 48.4604 29.6063 47.8625 26.1896 52.774 27.4281 55.2938 24.3958ZM53.5 18.8438C56.6177 18.8438 59.4365 20.6802 60.7177 23.499 59.0094 22.2177 56.4469 21.4062 53.5 21.4062 50.5531 21.4062 47.9906 22.2177 46.2823 23.499 47.5635 20.6802 50.3823 18.8438 53.5 18.8438ZM62.8104 50.2344 62.4688 47.3729C62.426 46.9031 61.999 46.5615 61.5292 46.6469 61.0594 46.6896 60.7177 47.1167 60.8031 47.5865L61.1448 50.4479C58.5823 50.7469 56.0625 50.875 53.5 50.875 50.9375 50.875 48.4177 50.7469 45.8979 50.4479L46.2396 47.5865C46.2823 47.1167 45.9833 46.6896 45.5135 46.6469 45.0438 46.6042 44.6167 46.9031 44.574 47.3729L44.574 47.3729 44.2323 50.2344C42.225 49.9354 40.7302 49.6365 39.9615 49.4229L40.6021 41.5219C40.6875 41.1375 40.8156 40.7104 41.0292 40.3688L42.951 41.9917 44.6167 40.0271 43.0365 38.6604C44.0187 38.0625 45.001 37.5927 46.0687 37.1656 48.0333 38.2333 50.7667 38.874 53.6281 38.874 56.5323 38.874 59.2656 38.2333 61.2302 37.1229 62.2979 37.5073 63.2802 38.0198 64.2625 38.6177L62.6396 40.0271 64.3052 41.9917 66.2271 40.3688C66.4406 40.7104 66.5687 41.0948 66.6542 41.5219L67.2948 49.3802C66.3125 49.6365 64.8604 49.9354 62.8104 50.2344Z" fill="#F2F2F2"/><path d="M36.075 30.375C35.8187 31.3146 35.1781 32.0833 34.2812 32.5104 35.1354 32.9375 35.8187 33.7062 36.075 34.6458 36.3312 33.7062 36.9719 32.9375 37.8688 32.5104 36.9719 32.0833 36.3312 31.3146 36.075 30.375Z" fill="#F2F2F2"/><path d="M56.9167 41.0521 50.0833 41.0521C49.1437 41.0521 48.375 41.8208 48.375 42.7604L48.375 46.1771C48.375 47.1167 49.1437 47.8854 50.0833 47.8854L56.9167 47.8854C57.8563 47.8854 58.625 47.1167 58.625 46.1771L58.625 42.7604C58.625 41.8208 57.8563 41.0521 56.9167 41.0521ZM50.0833 46.1771 50.0833 42.7604 56.9167 42.7604 56.9167 46.1771 50.0833 46.1771Z" fill="#F2F2F2"/><path d="M40.6021 18.8438C40.3458 19.7833 39.7052 20.5521 38.8083 20.9792 39.6625 21.4062 40.3458 22.175 40.6021 23.1146 40.8583 22.175 41.499 21.4062 42.3958 20.9792 41.5417 20.5521 40.8583 19.7833 40.6021 18.8438Z" fill="#F2F2F2"/><path d="M68.7896 28.2823C68.5333 29.2219 67.8927 29.9906 66.9958 30.4177 67.85 30.8448 68.5333 31.6135 68.7896 32.5531 69.0458 31.6135 69.6865 30.8448 70.5833 30.4177 69.7292 29.9906 69.0458 29.2219 68.7896 28.2823Z" fill="#F2F2F2"/></g></svg>